# xmcd CD database file
#
# Track frame offsets:
#	150
#	12040
#	15335
#	27015
#	38300
#	41215
#	54360
#	65902
#	75452
#	77237
#	88475
#	99745
#	115230
#	125220
#	139020
#	148975
#	162852
#	174322
#	176530
#	186350
#	189422
#	199920
#	211532
#	220997
#	226672
#	239670
#	244200
#	258472
#	262012
#	274170
#	278830
#	292565
#	306457
#	320390
#	330905
#
# Disc length: 4557 seconds
#
# Revision: 0
# Processed by: cddbd v1.5.1PL0 Copyright (c) Steve Scherf et al.
# Submitted via: CDex 1.51
#
DISCID=f711cb23
DTITLE=Charlie Parker - The Complete Charlie Parker on Savoy Years (Disc-4)
DYEAR=1995
DGENRE=Jazz
TTITLE0=BARBADOS NEW TAKE.1
TTITLE1=BARBADOS SHORT TAKE.2
TTITLE2=BARBADOS NEW TAKE.3
TTITLE3=BARBADOS ORIGINAL TAKE.4
TTITLE4=AH LEU CHA SHORT TAKE.1
TTITLE5=AH LEU CHA ORIGINAL TAKE.2
TTITLE6=CONSTELLATION NEW TAKE.1
TTITLE7=CONSTELLATION SHORT TAKE.2
TTITLE8=CONSTELLATION SHORT TAKE.3
TTITLE9=CONSTELLATION ORIGINAL TAKE.4
TTITLE10=CONSTELLATION TAKE.5
TTITLE11=PARKER'S MOOD NEW TAKE.1
TTITLE12=PARKER'S MOOD SHORT TAKE.2
TTITLE13=PARKER'S MOOD ORIGINAL TAKE.3
TTITLE14=PARKER'S MOOD TAKE.4
TTITLE15=PARKER'S MOOD TAKE.5
TTITLE16=PERHAPS NEW TAKE.1
TTITLE17=PERHAPS SHORT TAKE.2
TTITLE18=PERHAPS NEW TAKE.3
TTITLE19=PERHAPS SHORT TAKE.4
TTITLE20=PERHAPS NEW TAKE.5
TTITLE21=PERHAPS ORIGINAL TAKE.6
TTITLE22=PERHAPS ORIGINAL MASTER
TTITLE23=MARMADUKE SHORT TAKE.1
TTITLE24=MARMADUKE NEW TAKE.2
TTITLE25=MARMADUKE SHORT TAKE.3
TTITLE26=MARMADUKE NEW TAKE.4
TTITLE27=MARMADUKE SHORT TAKE.5
TTITLE28=MARMADUKE ORIGINAL TAKE.6
TTITLE29=MARMADUKE ORIGINAL TAKE.7
TTITLE30=MARMADUKE ORIGINAL TAKE.8
TTITLE31=STEEPLE CHASE ORIGINAL TAKE.1
TTITLE32=STEEPLE CHASE TAKE.2
TTITLE33=MERRY GO ROUND NEW TAKE.1
TTITLE34=MERRY GO ROUND TAKE.2
EXTD=YEAR: 1995
EXTT0=
EXTT1=
EXTT2=
EXTT3=
EXTT4=
EXTT5=
EXTT6=
EXTT7=
EXTT8=
EXTT9=
EXTT10=
EXTT11=
EXTT12=
EXTT13=
EXTT14=
EXTT15=
EXTT16=
EXTT17=
EXTT18=
EXTT19=
EXTT20=
EXTT21=
EXTT22=
EXTT23=
EXTT24=
EXTT25=
EXTT26=
EXTT27=
EXTT28=
EXTT29=
EXTT30=
EXTT31=
EXTT32=
EXTT33=
EXTT34=
PLAYORDER=
